# Exported from ProBuilder
# http://www.procore3d.com/probuilder
# 8/8/2017 3:55:12 PM

mtllib ./Level_Geo.mtl
o Level Geo

g Level Geo
v -13.11809 1.692689E-05 23.62958
v -18.00001 1.692689E-05 23.62958
v -13.11809 4.006992 23.62957
v -18.00001 4.006992 23.62957
v -18.00001 1.096725E-05 17.90097
v -18 0 0.05999959
v -18.00001 4.006989 17.90097
v -18 4.006978 0.05999851
v -18 0 0.05999959
v -13.11808 0 0.05999994
v -18 4.006978 0.05999851
v -13.11808 4.006978 0.05999923
v -13.11808 0 0.05999994
v -13.11809 1.096725E-05 17.90097
v -13.11808 4.006978 0.05999923
v -13.11809 4.006989 17.90097
v -13.11809 4.006989 17.90097
v -18.00001 4.006989 17.90097
v -13.11808 4.006978 0.05999923
v -18 4.006978 0.05999851
v -13.11808 0 0.05999994
v -18 0 0.05999959
v -13.11809 1.096725E-05 17.90097
v -18.00001 1.096725E-05 17.90097
v -13.11809 1.096725E-05 17.90097
v -18.00001 1.096725E-05 17.90097
v -13.11809 1.692689E-05 23.62958
v -18.00001 1.692689E-05 23.62958
v -13.11809 4.006989 17.90097
v -13.11809 1.096725E-05 17.90097
v -13.11809 4.006992 23.62957
v -13.11809 1.692689E-05 23.62958
v -28.11977 1.096725E-05 17.90097
v -28.11977 4.006989 17.90096
v -28.11977 1.692689E-05 23.62957
v -28.11977 4.006992 23.62957
v -18.00001 4.006989 17.90097
v -13.11809 4.006989 17.90097
v -18.00001 4.006992 23.62957
v -13.11809 4.006992 23.62957
v -18.00001 1.096725E-05 17.90097
v -18.00001 4.006989 17.90097
v -22.89142 1.096725E-05 17.90097
v -22.89142 4.006989 17.90097
v -18.00001 1.692689E-05 23.62958
v -18.00001 1.096725E-05 17.90097
v -22.89142 1.692689E-05 23.62957
v -22.89142 1.096725E-05 17.90097
v -18.00001 4.006989 17.90097
v -18.00001 4.006992 23.62957
v -22.89142 4.006989 17.90097
v -22.89142 4.006992 23.62957
v -18.00001 4.006992 23.62957
v -18.00001 1.692689E-05 23.62958
v -22.89142 4.006992 23.62957
v -22.89142 1.692689E-05 23.62957
v -22.89143 1.93119E-05 30.34219
v -22.89143 4.006997 30.34218
v -28.11978 1.93119E-05 30.34218
v -28.11978 4.006997 30.34218
v -22.89142 4.006992 23.62957
v -22.89142 4.006989 17.90097
v -28.11977 4.006992 23.62957
v -28.11977 4.006989 17.90096
v -22.89142 4.006989 17.90097
v -22.89142 1.096725E-05 17.90097
v -28.11977 4.006989 17.90096
v -28.11977 1.096725E-05 17.90097
v -22.89142 1.096725E-05 17.90097
v -22.89142 1.692689E-05 23.62957
v -28.11977 1.096725E-05 17.90097
v -28.11977 1.692689E-05 23.62957
v -22.89142 1.692689E-05 23.62957
v -22.89142 4.006992 23.62957
v -22.89142 1.740414E-05 25.62295
v -22.89142 4.006994 25.62295
v -28.11977 1.692689E-05 23.62957
v -22.89142 1.692689E-05 23.62957
v -28.11978 1.740414E-05 25.62295
v -22.89142 1.740414E-05 25.62295
v -22.89142 4.006992 23.62957
v -28.11977 4.006992 23.62957
v -22.89142 4.006994 25.62295
v -28.11978 4.006994 25.62295
v -28.11978 1.740414E-05 25.62295
v -22.89142 1.740414E-05 25.62295
v -28.11978 1.93119E-05 30.34218
v -22.89143 1.93119E-05 30.34219
v -22.89142 4.006994 25.62295
v -28.11978 4.006994 25.62295
v -22.89143 4.006997 30.34218
v -28.11978 4.006997 30.34218
v -28.11978 4.006994 25.62295
v -28.11978 1.740414E-05 25.62295
v -28.11978 4.006997 30.34218
v -28.11978 1.93119E-05 30.34218
v -22.89142 1.740414E-05 25.62295
v -22.89142 4.006994 25.62295
v -18.50425 1.740414E-05 25.62296
v -18.50425 4.006994 25.62295
v -22.89143 1.93119E-05 30.34219
v -22.89142 1.740414E-05 25.62295
v -18.50425 1.93119E-05 30.34219
v -18.50425 1.740414E-05 25.62296
v -22.89142 4.006994 25.62295
v -22.89143 4.006997 30.34218
v -18.50425 4.006994 25.62295
v -18.50425 4.006997 30.34219
v -22.89143 4.006997 30.34218
v -22.89143 1.93119E-05 30.34219
v -18.50425 4.006997 30.34219
v -18.50425 1.93119E-05 30.34219
v -18.50425 1.740414E-05 25.62296
v -18.50425 4.006994 25.62295
v -11.69636 1.740414E-05 25.62296
v -11.69636 6.377893 25.62296
v -18.50425 1.93119E-05 30.34219
v -18.50425 1.740414E-05 25.62296
v -11.69636 1.93119E-05 30.34219
v -11.69636 1.740414E-05 25.62296
v -18.50425 4.006994 25.62295
v -18.50425 4.006997 30.34219
v -11.69636 6.377893 25.62296
v -11.69636 6.377896 30.34219
v -18.50425 4.006997 30.34219
v -18.50425 1.93119E-05 30.34219
v -11.69636 6.377896 30.34219
v -11.69636 1.93119E-05 30.34219
v -11.69636 7.766229 25.62296
v -11.69636 7.766231 30.34219
v -0.1476192 7.766229 25.62296
v -0.1476212 7.766231 30.34219
v -0.1476212 6.377896 30.34219
v -0.1476192 6.377893 25.62296
v -0.1476212 7.766231 30.34219
v -0.1476192 7.766229 25.62296
v -11.69636 6.377893 25.62296
v -11.69636 6.377896 30.34219
v -11.69636 7.766229 25.62296
v -11.69636 7.766231 30.34219
v -28.11977 4.006992 23.62957
v -28.11977 1.692689E-05 23.62957
v -45.25666 4.006992 23.62955
v -45.25666 1.692689E-05 23.62956
v -28.11978 4.006994 25.62295
v -28.11977 4.006992 23.62957
v -45.25666 4.006994 25.62293
v -45.25666 4.006992 23.62955
v -28.11977 1.692689E-05 23.62957
v -28.11978 1.740414E-05 25.62295
v -45.25666 1.692689E-05 23.62956
v -45.25666 1.740414E-05 25.62294
v -28.11978 1.740414E-05 25.62295
v -28.11978 4.006994 25.62295
v -45.25666 1.740414E-05 25.62294
v -45.25666 4.006994 25.62293

vn 3.906965E-07 -9.520141E-07 -1
vn 1.953483E-07 -7.140106E-07 -1
vn 1.953483E-07 -7.140106E-07 -1
vn 0 -4.760071E-07 -1
vn 1 2.035564E-13 4.276334E-07
vn 1 2.035564E-13 4.276334E-07
vn 1 2.035564E-13 4.276334E-07
vn 1 2.035564E-13 4.276334E-07
vn -7.325559E-08 2.677538E-07 1
vn -1.098834E-07 2.231282E-07 1
vn -1.098834E-07 2.231282E-07 1
vn -1.465112E-07 1.785025E-07 1
vn -0.9999999 -7.633363E-14 -4.276333E-07
vn -1 -2.417232E-13 -4.276334E-07
vn -1 -2.417232E-13 -4.276334E-07
vn -1 -4.071128E-13 -4.276334E-07
vn 0 -1 5.87996E-07
vn -4.307399E-14 -1 5.87996E-07
vn -4.307399E-14 -1 5.87996E-07
vn -8.614798E-14 -1 5.879959E-07
vn 0 1 -6.147229E-07
vn 1.200851E-13 1 -6.14723E-07
vn 1.200851E-13 1 -6.14723E-07
vn 2.401701E-13 1 -6.14723E-07
vn 3.902491E-13 1 -1.040329E-06
vn 3.983511E-13 1 -1.040329E-06
vn 3.983511E-13 1 -1.040329E-06
vn 4.06453E-13 1 -1.040329E-06
vn -0.9999999 -3.962181E-13 -3.745706E-07
vn -1 -3.764073E-13 -3.745706E-07
vn -1 -3.764073E-13 -3.745706E-07
vn -1 -3.565965E-13 -3.745706E-07
vn 0.9999999 1.584873E-13 3.329516E-07
vn 1 1.584873E-13 3.329517E-07
vn 1 1.584873E-13 3.329517E-07
vn 1 1.584873E-13 3.329517E-07
vn 0 -1 6.659033E-07
vn 0 -1 6.659033E-07
vn 0 -1 6.659033E-07
vn 0 -1 6.659033E-07
vn -3.899382E-07 4.760068E-07 1
vn -3.899382E-07 4.760068E-07 1
vn -3.899382E-07 4.760068E-07 1
vn -3.899382E-07 4.760068E-07 1
vn 4.056641E-13 1 -1.040329E-06
vn 3.975779E-13 1 -1.040329E-06
vn 3.975779E-13 1 -1.040329E-06
vn 3.894917E-13 1 -1.040329E-06
vn -2.596611E-13 -1 6.659033E-07
vn -2.596611E-13 -1 6.659033E-07
vn -2.596611E-13 -1 6.659033E-07
vn -2.596611E-13 -1 6.659033E-07
vn 3.899382E-07 -4.76007E-07 -1
vn 3.899382E-07 -4.76007E-07 -1
vn 3.899382E-07 -4.76007E-07 -1
vn 3.899382E-07 -4.76007E-07 -1
vn 3.648088E-07 -4.760067E-07 -0.9999999
vn 3.648088E-07 -4.760067E-07 -0.9999999
vn 3.648088E-07 -4.760067E-07 -0.9999999
vn 3.648088E-07 -4.760067E-07 -0.9999999
vn -2.429274E-13 -1 6.659034E-07
vn -2.429274E-13 -1 6.659034E-07
vn -2.429274E-13 -1 6.659034E-07
vn -2.429274E-13 -1 6.659034E-07
vn -3.648088E-07 4.760068E-07 1
vn -3.648088E-07 4.760068E-07 1
vn -3.648088E-07 4.760068E-07 1
vn -3.648088E-07 4.760068E-07 1
vn 3.795212E-13 1 -1.040329E-06
vn 3.795212E-13 1 -1.040329E-06
vn 3.795212E-13 1 -1.040329E-06
vn 3.795212E-13 1 -1.040329E-06
vn -0.9999999 -4.554634E-13 -9.568416E-07
vn -1 -4.554633E-13 -9.568416E-07
vn -1 -4.554633E-13 -9.568416E-07
vn -0.9999999 -4.554632E-13 -9.568416E-07
vn 8.734196E-14 1 -2.394185E-07
vn 8.730401E-14 1 -2.394185E-07
vn 8.730401E-14 1 -2.394185E-07
vn 8.726606E-14 1 -2.394185E-07
vn -3.490643E-13 -1 9.568416E-07
vn -3.490643E-13 -1 9.568416E-07
vn -3.490643E-13 -1 9.568416E-07
vn -3.490643E-13 -1 9.568416E-07
vn 1.47475E-13 1 -4.042529E-07
vn 1.47459E-13 1 -4.042529E-07
vn 1.47459E-13 1 -4.042529E-07
vn 1.474429E-13 1 -4.042529E-07
vn -2.211644E-13 -1 6.062475E-07
vn -2.211644E-13 -1 6.062475E-07
vn -2.211644E-13 -1 6.062475E-07
vn -2.211644E-13 -1 6.062475E-07
vn 1 1.923853E-13 4.04165E-07
vn 0.9999999 1.923853E-13 4.04165E-07
vn 0.9999999 1.923853E-13 4.04165E-07
vn 1 1.923853E-13 4.04165E-07
vn -4.347555E-07 4.760069E-07 1
vn -4.347555E-07 4.760069E-07 1
vn -4.347555E-07 4.760069E-07 1
vn -4.347555E-07 4.760069E-07 1
vn 1.757512E-13 0.9999999 -4.042529E-07
vn 1.757512E-13 0.9999999 -4.042529E-07
vn 1.757512E-13 0.9999999 -4.042529E-07
vn 1.757512E-13 0.9999999 -4.042529E-07
vn -2.635694E-13 -0.9999999 6.062475E-07
vn -2.635694E-13 -0.9999999 6.062475E-07
vn -2.635694E-13 -0.9999999 6.062475E-07
vn -2.635694E-13 -0.9999999 6.062475E-07
vn 4.347555E-07 -4.760068E-07 -1
vn 4.347555E-07 -4.760068E-07 -1
vn 4.347555E-07 -4.760068E-07 -1
vn 4.347555E-07 -4.760068E-07 -1
vn -2.801673E-07 4.760069E-07 1
vn -3.441305E-07 3.673328E-07 1
vn -3.441305E-07 3.673328E-07 1
vn -3.843162E-07 2.99057E-07 1
vn 1.132584E-13 1 -4.042529E-07
vn 1.132584E-13 1 -4.042529E-07
vn 1.132584E-13 1 -4.042529E-07
vn 1.132584E-13 1 -4.042529E-07
vn 0.328884 -0.9443704 7.054456E-07
vn 0.328884 -0.9443704 7.171424E-07
vn 0.328884 -0.9443704 7.171424E-07
vn 0.3288841 -0.9443704 7.288394E-07
vn 4.459402E-07 -4.760068E-07 -1
vn 3.441305E-07 -3.673327E-07 -1
vn 3.441305E-07 -3.673327E-07 -1
vn 2.801673E-07 -2.99057E-07 -1
vn -2.002514E-13 -1 4.04165E-07
vn -2.002514E-13 -1 4.04165E-07
vn -2.002514E-13 -1 4.04165E-07
vn -2.002514E-13 -1 4.04165E-07
vn -1 0 -4.04165E-07
vn -1 0 -4.04165E-07
vn -1 0 -4.04165E-07
vn -1 0 -4.04165E-07
vn 1 0 4.04165E-07
vn 1 0 4.04165E-07
vn 1 0 4.04165E-07
vn 1 0 4.04165E-07
vn -8.904063E-07 4.760071E-07 1
vn -8.904063E-07 4.760071E-07 1
vn -8.904063E-07 4.760071E-07 1
vn -8.904063E-07 4.760071E-07 1
vn -8.519778E-13 -1 9.568416E-07
vn -8.519778E-13 -1 9.568416E-07
vn -8.519778E-13 -1 9.568416E-07
vn -8.519778E-13 -1 9.568416E-07
vn 2.131797E-13 1 -2.394185E-07
vn 2.131797E-13 1 -2.394185E-07
vn 2.131797E-13 1 -2.394185E-07
vn 2.131797E-13 1 -2.394185E-07
vn 8.904062E-07 -4.760069E-07 -1
vn 8.904062E-07 -4.760069E-07 -1
vn 8.904062E-07 -4.760069E-07 -1
vn 8.904062E-07 -4.760069E-07 -1

vt -0.8819091 6.183611E-06
vt 4.00001 6.183612E-06
vt -0.8819091 4.006981
vt 4.00001 4.006981
vt -16.84097 1.096726E-05
vt 0.9999986 8.142256E-13
vt -16.84097 4.006989
vt 0.9999997 4.006978
vt -4 1.785025E-07
vt 0.8819188 1.785026E-07
vt -4 4.006978
vt 0.8819188 4.006978
vt -1 -3.590403E-13
vt 16.84097 1.096725E-05
vt -1.000001 4.006978
vt 16.84097 4.006989
vt 0.8819113 16.84097
vt -4.000008 16.84097
vt 0.8819189 -0.9999983
vt -4 -0.999999
vt -0.8819189 -1
vt 4 -1
vt -0.8819113 16.84097
vt 4.000008 16.84097
vt -0.8819113 16.84097
vt 4.000008 16.84097
vt -0.8819091 22.56958
vt 4.00001 22.56958
vt 16.84097 4.006989
vt 16.84097 1.096725E-05
vt 22.56957 4.006992
vt 22.56958 1.692689E-05
vt -16.84097 1.096726E-05
vt -16.84097 4.006989
vt -22.56958 1.692689E-05
vt -22.56957 4.006992
vt -4.000008 16.84097
vt 0.8819113 16.84097
vt -4.00001 22.56958
vt 0.8819091 22.56958
vt -4.000001 2.950837E-06
vt -4.000001 4.00698
vt -8.891414 2.950837E-06
vt -8.891414 4.00698
vt 4.00001 22.56958
vt 4.000008 16.84097
vt 8.891422 22.56957
vt 8.89142 16.84097
vt -4.000008 16.84097
vt -4.00001 22.56958
vt -8.89142 16.84097
vt -8.891422 22.56957
vt 4.000001 4.006981
vt 4.000001 6.183612E-06
vt 8.891414 4.006981
vt 8.891414 6.183612E-06
vt 8.891416 5.373385E-06
vt 8.891416 4.006983
vt 14.11977 5.373385E-06
vt 14.11977 4.006983
vt -8.891422 22.56957
vt -8.89142 16.84097
vt -14.11977 22.56957
vt -14.11977 16.84097
vt -8.891415 4.00698
vt -8.891415 2.950837E-06
vt -14.11977 4.00698
vt -14.11977 2.950837E-06
vt 8.89142 16.84097
vt 8.891422 22.56957
vt 14.11977 16.84097
vt 14.11977 22.56957
vt 22.56958 1.692689E-05
vt 22.56958 4.006992
vt 24.56296 1.740415E-05
vt 24.56296 4.006994
vt 14.11977 22.56957
vt 8.891422 22.56957
vt 14.11978 24.56295
vt 8.891424 24.56295
vt -8.891422 22.56958
vt -14.11977 22.56957
vt -8.891424 24.56296
vt -14.11978 24.56295
vt 14.11978 24.56295
vt 8.891424 24.56295
vt 14.11978 29.28218
vt 8.891426 29.28219
vt -8.891424 24.56295
vt -14.11978 24.56295
vt -8.891426 29.28219
vt -14.11978 29.28218
vt -24.56296 4.006994
vt -24.56296 1.740414E-05
vt -29.28219 4.006997
vt -29.28219 1.931191E-05
vt -8.891414 5.712005E-06
vt -8.891414 4.006982
vt -4.504238 5.712005E-06
vt -4.504238 4.006982
vt 8.891426 29.28219
vt 8.891424 24.56295
vt 4.504251 29.28219
vt 4.504249 24.56296
vt -8.891424 24.56295
vt -8.891426 29.28219
vt -4.504249 24.56296
vt -4.504251 29.28219
vt 8.891414 4.006983
vt 8.891414 5.373383E-06
vt 4.504238 4.006983
vt 4.504238 5.373383E-06
vt -4.504242 5.712005E-06
vt -4.504242 4.006982
vt 2.303649 5.712005E-06
vt 2.303649 6.377881
vt 4.504251 29.28219
vt 4.504249 24.56296
vt -2.30364 29.28219
vt -2.303642 24.56296
vt -2.935843 24.56296
vt -2.935843 29.28219
vt 4.273078 24.56296
vt 4.273077 29.28219
vt 4.504238 4.006983
vt 4.504238 5.373384E-06
vt -2.303653 6.377882
vt -2.303653 5.373385E-06
vt 2.303642 24.56296
vt 2.30364 29.28219
vt 13.85238 24.56297
vt 13.85238 29.2822
vt 29.28219 6.377896
vt 24.56296 6.377893
vt 29.28219 7.766231
vt 24.56296 7.766229
vt -24.56296 6.377893
vt -29.28219 6.377896
vt -24.56296 7.766229
vt -29.28219 7.766231
vt -14.11975 4.006981
vt -14.11975 6.183608E-06
vt -31.25664 4.006981
vt -31.25664 6.183608E-06
vt -14.11978 24.56295
vt -14.11977 22.56957
vt -31.25666 24.56294
vt -31.25666 22.56956
vt 14.11977 22.56957
vt 14.11978 24.56295
vt 31.25666 22.56956
vt 31.25666 24.56294
vt 14.11975 5.712002E-06
vt 14.11975 4.006982
vt 31.25664 5.712002E-06
vt 31.25664 4.006982

g Level Geo
usemtl Default_Prototype
f 1/1/1 2/2/2 4/4/4 3/3/3
f 5/5/5 6/6/6 8/8/8 7/7/7
f 9/9/9 10/10/10 12/12/12 11/11/11
f 13/13/13 14/14/14 16/16/16 15/15/15
f 17/17/17 18/18/18 20/20/20 19/19/19
f 21/21/21 22/22/22 24/24/24 23/23/23
f 25/25/25 26/26/26 28/28/28 27/27/27
f 29/29/29 30/30/30 32/32/32 31/31/31
f 33/33/33 34/34/34 36/36/36 35/35/35
f 37/37/37 38/38/38 40/40/40 39/39/39
f 41/41/41 42/42/42 44/44/44 43/43/43
f 45/45/45 46/46/46 48/48/48 47/47/47
f 49/49/49 50/50/50 52/52/52 51/51/51
f 53/53/53 54/54/54 56/56/56 55/55/55
f 59/59/59 60/60/60 58/58/58 57/57/57
f 63/63/63 64/64/64 62/62/62 61/61/61
f 67/67/67 68/68/68 66/66/66 65/65/65
f 71/71/71 72/72/72 70/70/70 69/69/69
f 75/75/75 76/76/76 74/74/74 73/73/73
f 79/79/79 80/80/80 78/78/78 77/77/77
f 83/83/83 84/84/84 82/82/82 81/81/81
f 87/87/87 88/88/88 86/86/86 85/85/85
f 91/91/91 92/92/92 90/90/90 89/89/89
f 95/95/95 96/96/96 94/94/94 93/93/93
f 99/99/99 100/100/100 98/98/98 97/97/97
f 103/103/103 104/104/104 102/102/102 101/101/101
f 107/107/107 108/108/108 106/106/106 105/105/105
f 111/111/111 112/112/112 110/110/110 109/109/109
f 115/115/115 116/116/116 114/114/114 113/113/113
f 119/119/119 120/120/120 118/118/118 117/117/117
f 123/123/123 124/124/124 122/122/122 121/121/121
f 127/127/127 128/128/128 126/126/126 125/125/125
f 131/131/131 132/132/132 130/130/130 129/129/129
f 135/135/135 136/136/136 134/134/134 133/133/133
f 139/139/139 140/140/140 138/138/138 137/137/137
f 143/143/143 144/144/144 142/142/142 141/141/141
f 147/147/147 148/148/148 146/146/146 145/145/145
f 151/151/151 152/152/152 150/150/150 149/149/149
f 155/155/155 156/156/156 154/154/154 153/153/153

